<svg width="64" height="64" viewBox="0 0 64 64" fill="none" xmlns="http://www.w3.org/2000/svg">
  <style>
    .orbit {
      stroke-dasharray: 8 8;
      animation: dash 2.5s linear infinite;
    }

    .dot {
      animation: glow 1.6s ease-in-out infinite alternate;
    }

    @keyframes dash {
      to { stroke-dashoffset: -32; }
    }

    @keyframes glow {
      from { opacity: 0.5; transform: scale(0.95); }
      to { opacity: 1; transform: scale(1.1); }
    }
  </style>

  <circle cx="32" cy="32" r="24" fill="#0F172A" stroke="#2563EB" stroke-width="3"/>
  <path d="M8 32H56" stroke="#60A5FA" stroke-width="2.5" stroke-linecap="round"/>
  <path d="M32 8C25 15 21 23 21 32C21 41 25 49 32 56" stroke="#93C5FD" stroke-width="2.5" stroke-linecap="round"/>
  <path d="M32 8C39 15 43 23 43 32C43 41 39 49 32 56" stroke="#93C5FD" stroke-width="2.5" stroke-linecap="round"/>
  <path class="orbit" d="M14 21C19 25 25 27 32 27C39 27 45 25 50 21" stroke="#60A5FA" stroke-width="2"/>
  <path class="orbit" d="M14 43C19 39 25 37 32 37C39 37 45 39 50 43" stroke="#60A5FA" stroke-width="2"/>
  <circle class="dot" cx="45" cy="19" r="4" fill="#2563EB"/>
  <circle class="dot" cx="20" cy="45" r="3" fill="#60A5FA"/>
</svg>
